<svg width="213" height="145" viewBox="0 0 213 145" xmlns="http://www.w3.org/2000/svg" xmlns:xlink="http://www.w3.org/1999/xlink"><defs><path d="M5.86.345C2.782.345.288 2.832.288 5.9v8.924c0 3.068 2.494 5.556 5.572 5.556h58.373c3.077 0 5.572-2.488 5.572-5.556V5.9c0-3.068-2.495-5.555-5.572-5.555" id="b"/><path d="M5.6.01C2.523.01.028 2.499.028 5.567v49.319c0 3.068 2.495 5.555 5.572 5.555h49.465c3.078 0 5.572-2.487 5.572-5.555V5.566c0-3.068-2.494-5.555-5.572-5.555" id="d"/><path id="a" d="M151 70h62v75h-62z"/><mask id="f" maskContentUnits="userSpaceOnUse" maskUnits="objectBoundingBox" x="0" y="0" width="62" height="75" fill="#fff"><use xlink:href="#a"/></mask></defs><g fill="none" fill-rule="evenodd"><g transform="translate(158.532 70.065)"><mask id="c" fill="#fff"><use xlink:href="#b"/></mask><path d="M49.598-6.216C53.83-.49 50.75 7.472 42.458 12.162c-8.293 4.69-16.918 3.573-20.734-2.424-3.816-5.998-.266-13.695 7.083-18.165 7.35-4.47 16.206-3.995 20.791 2.21" fill="#FABB05" mask="url(#c)"/></g><g transform="translate(.445 .157)"><mask id="e" fill="#fff"><use xlink:href="#d"/></mask><path d="M-12.901 20.207c-9.5 18.829 2.142 32.589 10.891 37.28 8.75 4.69 41.453 4.376 47.343-5.207 5.89-9.583-10.148-37.179-22.41-43.854C10.664 1.75-5.4 5.34-12.9 20.206" fill="#34A253" mask="url(#e)"/></g><use stroke="#5F6368" mask="url(#f)" stroke-width="2" stroke-dasharray="3,2.25" xlink:href="#a"/><path stroke="#202124" d="M.5.5h151v70H.5z"/></g></svg>
